<?xml version="1.0" encoding="utf-8"?>
<!-- Generator: Adobe Illustrator 22.0.1, SVG Export Plug-In . SVG Version: 6.00 Build 0)  -->
<svg version="1.1" id="Layer_1" xmlns="http://www.w3.org/2000/svg" xmlns:xlink="http://www.w3.org/1999/xlink" x="0px" y="0px"
	 viewBox="0 0 830 47.9" style="enable-background:new 0 0 830 47.9;" xml:space="preserve">
<style type="text/css">
	.st0{fill:#FFFFFF;}
	.st1{fill:#231F20;}
</style>
<g id="XMLID_7_">
	<g>
		<polygon class="st0" points="801.8,8.7 801.8,4.1 810.9,4.1 812.2,4.1 816.9,4.1 816.9,4.1 827.3,4.1 827.3,8.7 816.9,8.7 
			816.9,37.5 812.2,37.5 812.2,8.7 		"/>
		<path class="st1" d="M821.5,12.6v-1.1h-1.9v1.1H821.5z M810.9,4.1h-9.1v4.6h10.4v28.7h4.6V8.7h10.4V4.1h-10.4v0h-4.6L810.9,4.1z
			 M796,12.6h10.4v28.7h4.6v-1.1h-1.5V11.5h-10.4V8H796V12.6z M793.3,9.2V5.3h5.8V1.4h10.4l1.4,0h8.7v0H830v10.1h-5.8v3.9h-4.6v24.8
			h-5.8V44H808v3.9h-10.1V19.3h-10.4V9.2H793.3z M803.7,15.4h-10.4v-3.5h-3.1v4.7h10.4v28.7h4.7V44h-1.6V15.4z"/>
		<polygon class="st0" points="757.7,22.9 757.7,37.2 753.1,37.2 753.1,3.8 757.7,3.8 757.7,18.2 773.4,18.2 773.4,3.8 778.1,3.8 
			778.1,37.2 773.4,37.2 773.4,22.9 		"/>
		<path class="st1" d="M770.7,15.5V7.7h-3.1v7.8H770.7z M760.5,26.7h7.2v14.4h4.6v-1.2h-1.6V25.6h-10.3V26.7z M761.8,15.5h3.1v-3.9
			h-3.1V15.5z M761.8,30.6v14.3h4.6v-1.1h-1.6V29.4h-4.4v1.2H761.8z M757.7,37.2V22.9h15.7v14.3h4.7V3.8h-4.7v14.4h-15.7V3.8h-4.6
			v33.4H757.7z M747.2,41.1h4.7v-1.2h-1.6V7.7h-3.1V41.1z M738.7,8.9h5.8V5h5.8V1.1h10.1v7.8h4.4V5h5.8V1.1h10.1v38.8H775v3.9h-5.8
			v3.9h-10.1v-7.8h-4.5v3.9h-5.8v3.9h-10.1V8.9z M741.4,44.9h4.7v-1.1h-1.6V11.6h-3.1V44.9z"/>
		<path class="st0" d="M717.4,7.7c-6.8,0-12.3,5.5-12.3,12.3s5.5,12.3,12.3,12.3c2.3,0,4.5-0.6,6.4-1.8l0.6-0.4V23h-5.7v-4.5H729
			v13.7c-3.1,3-7.2,4.6-11.5,4.6c-9.2,0-16.8-7.6-16.8-16.8s7.6-16.8,16.8-16.8c3.9,0,7.7,1.4,10.7,3.8l-3.2,3.2
			C722.8,8.6,720.2,7.7,717.4,7.7z"/>
		<path class="st1" d="M721.8,11.5c-1.4-0.7-2.8-1-4.4-1c-1.7,0-3.3,0.5-4.7,1.2c2.3,0.2,4.5,1.1,6.4,2.5L721.8,11.5z M716.1,19
			l-0.7,0.7h0.7V19z M716.1,25.7v-3.3H713v4.4h5.7v2.7c1.1-0.1,2.1-0.5,3.1-0.9v-2.9H716.1z M710.3,26.4v-0.1h-0.1
			C710.2,26.4,710.3,26.4,710.3,26.4z M709.6,14.5c-0.3,0.4-0.6,0.9-0.8,1.3c1.6,0.4,3.1,1.1,4.5,2.2l2.7-2.7
			c-1.3-0.7-2.8-1.1-4.4-1.1C710.9,14.3,710.3,14.4,709.6,14.5z M711,19.7c-0.9-0.6-2-1.1-3.1-1.3c-0.1,0.5-0.1,1.1-0.1,1.6
			c0,1.3,0.2,2.5,0.7,3.6h1.8v-3.9H711z M705.1,20c0-6.8,5.5-12.3,12.3-12.3c2.8,0,5.3,0.9,7.5,2.5l3.2-3.2c-3-2.5-6.7-3.8-10.7-3.8
			c-9.2,0-16.8,7.6-16.8,16.8s7.6,16.8,16.8,16.8c4.3,0,8.4-1.6,11.5-4.6V18.6h-10.1V23h5.7v7.1l-0.6,0.4c-2,1.2-4.2,1.8-6.4,1.8
			C710.7,32.3,705.1,26.8,705.1,20z M697.9,20c0-2.8,0.6-5.4,1.6-7.8c-2.9,3-4.7,7.1-4.7,11.7c0,9.2,7.5,16.7,16.7,16.7
			c2.2,0,4.3-0.4,6.2-1.1c-0.1,0-0.2,0-0.4,0C706.7,39.5,697.9,30.8,697.9,20z M705.8,47.3c-10.8,0-19.5-8.7-19.5-19.5
			c0-8,4.8-14.9,11.8-17.9c1.7-1.6,3.7-3,5.8-3.9c3.5-3.4,8.3-5.5,13.5-5.5c5,0,9.8,1.9,13.4,5.4L732,7l-7,7l-1-0.9l-2.8,2.8h10.5
			v18.5h-1c-1.4,1.4-3.1,2.5-4.8,3.3v0.6h-0.9c-1.5,1.4-3.1,2.5-4.8,3.3v0.6h-1C715.5,45.4,710.8,47.3,705.8,47.3z M692.1,23.9
			c0-2.8,0.6-5.4,1.6-7.8c-2.9,3-4.7,7.1-4.7,11.7c0,9.3,7.5,16.8,16.8,16.8c2.1,0,4.2-0.4,6.2-1.2c-0.1,0-0.2,0-0.4,0
			C700.9,43.4,692.1,34.6,692.1,23.9z"/>
		<rect x="672.3" y="3.8" class="st0" width="4.7" height="33.4"/>
		<path class="st1" d="M672.3,37.2h4.7V3.8h-4.7V37.2z M669.6,39.9V7.7h-3.1v33.4h4.6v-1.2H669.6z M658,8.9h5.8V5h5.8V1.1h10.1v38.8
			h-5.8v3.9H668v3.9H658V8.9z M663.8,43.8V11.6h-3.1v33.4h4.6v-1.1H663.8z"/>
		<polygon class="st0" points="624.2,36.6 624.2,3.2 629.4,3.2 643.9,28.3 643.9,3.2 648.6,3.2 648.6,36.6 643.3,36.6 628.9,11.6 
			628.9,36.6 		"/>
		<path class="st1" d="M641.2,18.2V7.1h-3.1v5.7L641.2,18.2z M631.6,30.3l5.9,10.2h5.3v-0.9l-0.7,0.4l-10.5-18.1V30.3z M628.8,39.3
			l2.9,5h5.3v-0.9l-0.7,0.4l-4.7-8.1v3.6H628.8z M624.2,36.6h4.7v-25l14.4,25h5.3V3.2h-4.7v25.1L629.4,3.2h-5.2V36.6z M617.2,44.3
			v-1.1h-1.6V11h-3.1v33.4H617.2z M615.7,4.4h5.8V0.5h10.1v1.1l3.8,6.6V4.4h5.8V0.5h10.1v38.8h-5.8v3.9h-5.8v3.9h-8.1l-1.1,0.6
			l-4.7-8.1v3.6H620v3.9h-10.1V8.3h5.8V4.4z M618.4,40.5h4.6v-1.1h-1.6V7.1h-3.1V40.5z"/>
		<polygon class="st0" points="554,3.7 558.7,3.7 558.7,32.6 575.1,32.6 575.1,37.2 554,37.2 		"/>
		<path class="st1" d="M569.3,39.9h-18.1V7.6h-3.1v33.5h21.2V39.9z M558.7,3.7H554v33.5h21.1v-4.6h-16.5V3.7z M545.5,8.7V4.9h5.8V1
			h10.1v28.9h16.5v10.1h-5.8v3.9h-5.8v3.9h-26.6l0-39H545.5z M563.5,43.8h-18.1V11.5h-3.1v33.5h21.2V43.8z"/>
		<path class="st1" d="M505.9,26.5l6.9-18.1l6.9,18.1H505.9z M514.7,23.8l-2.4-6.3l-2.4,6.3H514.7z"/>
		<path class="st0" d="M512.8,8.4l-6.9,18.1h13.8L512.8,8.4z M496.6,37.2l12.6-33.1h7.1L529,37.2h-5.2l-2.3-6h-17.4l-2.3,6H496.6z"
			/>
		<path class="st1" d="M510.8,37.8h-6.2l-0.4,1.2h1.9l2.3,6h5.2L510.8,37.8z M506,33.9l-0.4,1.1h8.2l2.3,6h5.2l-2.8-7.2H506z
			 M509.2,4.1l-12.6,33.1h5.2l2.3-6h17.4l2.3,6h5.2L516.4,4.1H509.2z M492.7,39.9L504.9,8h-3.4l-12.6,33.1h5.2l0.5-1.2H492.7z
			 M484.9,43.8l12.2-31.9h-3.4l-12.6,33.1h5.2l0.5-1.1H484.9z M488.2,47.7h-11l14.7-38.5h6.3l1.5-3.9h6.3l1.5-3.9h10.9L533,39.9
			h-9.2l1.5,3.9H516l1.5,3.9h-11l-2.3-6h-7.3l-0.8,2.1h-6.3L488.2,47.7z"/>
		<polygon class="st0" points="443.5,36.6 443.5,3.2 448.7,3.2 463.1,28.3 463.1,3.2 467.8,3.2 467.8,36.6 462.5,36.6 448.1,11.6 
			448.1,36.6 		"/>
		<path class="st1" d="M460.4,18.2V7.1h-3.1v5.7L460.4,18.2z M450.8,30.3l5.9,10.2h5.3v-0.9l-0.7,0.4l-10.5-18.1V30.3z M448,39.3
			l2.9,5h5.3v-0.9l-0.7,0.4l-4.7-8.1v3.6H448z M443.5,36.6h4.6v-25l14.4,25h5.3V3.2h-4.7v25.1L448.7,3.2h-5.2V36.6z M437.7,40.5h4.6
			v-1.1h-1.6V7.1h-3.1V40.5z M429.1,8.3h5.8V4.4h5.8V0.5h10.1v1.1l3.8,6.6V4.4h5.8V0.5h10.1v38.8h-5.8v3.9h-5.8v3.9h-8.1l-1.1,0.6
			l-4.7-8.1v3.6h-5.8v3.9h-10.1V8.3z M431.8,44.3h4.6v-1.1h-1.5V11h-3.1V44.3z"/>
		<path class="st1" d="M412.4,19.9c0-5.5-4.4-9.9-9.9-9.9c-1.7,0-3.3,0.5-4.8,1.2c6.4,0.5,11.5,6,11.5,12.6c0,1.3-0.2,2.6-0.6,3.8
			C411,25.9,412.4,23.1,412.4,19.9z M400.8,27.7c0-4.8-3.4-8.8-7.9-9.7c-0.1,0.6-0.2,1.3-0.2,1.9c0,4.8,3.4,8.8,8,9.7
			C400.7,29,400.8,28.4,400.8,27.7z M396.7,14c-0.7,0-1.5,0.1-2.2,0.2c-0.3,0.4-0.5,0.8-0.7,1.2c5.6,1.3,9.7,6.3,9.7,12.3
			c0,0.7,0,1.4-0.2,2.1c0.5,0,0.9-0.1,1.4-0.2c1.1-1.6,1.8-3.6,1.8-5.7C406.6,18.4,402.2,14,396.7,14z M389.9,19.9
			c0-6.9,5.7-12.6,12.6-12.6s12.6,5.7,12.6,12.6c0,7-5.7,12.6-12.6,12.6S389.9,26.9,389.9,19.9z"/>
		<path class="st0" d="M402.5,37.2c-9.5,0-17.2-7.7-17.2-17.2c0-9.5,7.7-17.2,17.2-17.2c9.5,0,17.2,7.8,17.2,17.2
			C419.8,29.5,412,37.2,402.5,37.2z M402.5,7.3c-6.9,0-12.6,5.7-12.6,12.6c0,7,5.7,12.6,12.6,12.6s12.6-5.6,12.6-12.6
			C415.1,13,409.5,7.3,402.5,7.3z"/>
		<path class="st1" d="M385.3,19.9c0,9.5,7.7,17.2,17.2,17.2c9.5,0,17.2-7.7,17.2-17.2c0-9.5-7.8-17.2-17.2-17.2
			C393,2.7,385.3,10.5,385.3,19.9z M384.3,11.9c-3,3.1-4.8,7.3-4.8,11.9c0,9.5,7.7,17.2,17.2,17.2c2.2,0,4.3-0.4,6.2-1.2
			c-0.1,0-0.3,0-0.4,0c-11,0-19.9-8.9-19.9-19.9C382.6,17.1,383.2,14.4,384.3,11.9z M378.4,15.8c-3,3.1-4.8,7.3-4.8,11.9
			c0,9.5,7.8,17.2,17.2,17.2c2.2,0,4.3-0.4,6.2-1.1c-0.1,0-0.2,0-0.4,0c-11,0-19.9-8.9-19.9-19.9C376.7,21,377.4,18.3,378.4,15.8z
			 M390.9,47.7c-11,0-19.9-9-19.9-20c0-8.2,5-15.2,12-18.3c1.7-1.6,3.7-3,5.8-3.9c3.6-3.4,8.5-5.5,13.8-5.5c11,0,19.9,8.9,19.9,19.9
			c0,8.2-4.9,15.2-12,18.3c-1.7,1.6-3.7,3-5.8,3.9C401.1,45.6,396.2,47.7,390.9,47.7z"/>
		<rect x="356.9" y="3.8" class="st0" width="4.6" height="33.4"/>
		<path class="st1" d="M345.3,44.9h4.7v-1.1h-1.6V11.6h-3.1V44.9z M356.9,37.2h4.6V3.8h-4.6V37.2z M358.5,43.8h-5.8v3.9h-10.1V8.9
			h5.8V5h5.8V1.1h10.1v38.8h-5.8V43.8z M354.2,39.9V7.7h-3.1v33.4h4.7v-1.2H354.2z"/>
		<path class="st0" d="M311.8,29.6c3.2,1.6,6,3,9,3c4.8,0,7.7-1.7,7.8-4.5c0.1-3.1-2.3-4-7.7-5.3c-4.8-1.2-11.4-2.8-11.4-9.8
			c0-2.5,0.9-4.7,2.5-6.4c2.1-2,5.1-3.1,8.7-3.1c4.4,0,7.3,1.3,9.2,2.3l-2,4.2c-1.7-0.9-3.7-1.8-7.2-1.8c-2.3,0-4.2,0.7-5.3,1.8
			c-0.8,0.8-1.2,1.8-1.2,3c0,3.2,2.9,4,7.9,5.3c6,1.5,11.5,3.4,11.2,10c-0.2,5.5-5,9-12.4,9c-4,0-7.5-1.6-11.1-3.5L311.8,29.6z"/>
		<path class="st1" d="M297.8,20.7c0,6.6,5.9,8.4,10.6,9.6l1.2-2.4c-4.4-1.6-8.7-4.5-8.7-11c0-1.2,0.2-2.3,0.5-3.4
			c-0.4,0.3-0.7,0.6-1,0.9C298.7,16,297.8,18.2,297.8,20.7z M323.3,11.1c-0.8-0.2-1.6-0.3-2.7-0.3c-1.8,0-3,0.5-3.4,1
			c-0.1,0.1-0.2,0.2-0.2,0.3c2.2,0.3,3.7,1,5,1.7L323.3,11.1z M315.7,43.8c-0.2,0-0.5,0-0.8,0c-5,0-9.1-2.1-13.4-4.4l-1.4-0.7
			l0.6-1.1c-0.2-0.1-0.4-0.2-0.6-0.3l-2.1,4.1c3.6,1.9,7.1,3.5,11.1,3.5C311.7,44.9,313.9,44.5,315.7,43.8z M310,4.7
			c2.5-2.5,6.3-3.9,10.5-3.9c5.4,0,8.7,1.6,10.8,2.8l0,0c0.2,0.1,0.5,0.2,0.7,0.3l1.2,0.6l-4.3,9.2l-1.2-0.6c-0.3-0.1-0.7-0.3-1-0.5
			c-0.3-0.2-0.7-0.3-1-0.5l-1.8,3.9c5.1,1.4,12.2,3.8,12,12.4c-0.2,5.1-3.2,8.9-8.3,10.6c-1.4,1.7-3.4,3.1-5.8,3.9
			c-2.5,3.1-7,5-12.7,5c-5,0-9.1-2.1-13.4-4.4l-1.4-0.7l4.6-8.9l1.4,0.7c0.5,0.3,1.1,0.6,1.6,0.9l1.8-3.5c-4.3-1.6-8.7-4.5-8.7-11
			c0-3.2,1.1-6.1,3.3-8.3c1.4-1.4,3.1-2.4,5.1-3.1c0.2-0.3,0.5-0.6,0.7-0.8c1.4-1.4,3.1-2.4,5.1-3.1C309.5,5.2,309.8,4.9,310,4.7z
			 M320.2,25.4c-5-1.3-13.5-3.3-13.5-12.4c0-1.1,0.1-2.3,0.5-3.3c-0.4,0.2-0.7,0.5-1,0.9c-1.7,1.6-2.5,3.9-2.5,6.3
			c0,7,6.6,8.6,11.4,9.8c3.9,0.9,6.2,1.7,7.2,3.2c1.7-0.2,3.6-0.7,3.7-1.8C325.8,27.3,325.9,26.8,320.2,25.4z M315,41.1
			c2.5,0,4.8-0.4,6.6-1.2c-0.2,0-0.5,0-0.8,0c-5.1,0-9.2-2.1-13.5-4.3l-1.4-0.7l0.6-1.1c-0.2-0.1-0.4-0.2-0.6-0.3l-2.1,4.1
			C307.5,39.4,310.9,41.1,315,41.1z M321.9,18.2c-5-1.2-7.8-2.1-7.9-5.3c0-1.3,0.4-2.3,1.2-3c1.1-1.1,3.1-1.8,5.3-1.8
			c3.4,0,5.5,1,7.2,1.8l2-4.2c-1.9-1-4.8-2.3-9.2-2.3c-3.5,0-6.6,1.1-8.7,3.1c-1.6,1.7-2.5,3.9-2.5,6.4c0,7,6.6,8.6,11.4,9.8
			c5.4,1.4,7.8,2.3,7.7,5.3c-0.1,2.8-3,4.5-7.8,4.5c-3,0-5.8-1.3-9-3l-2.1,4.1c3.6,1.9,7.1,3.5,11.1,3.5c7.4,0,12.2-3.5,12.4-9
			C333.4,21.6,328,19.7,321.9,18.2z"/>
		<path class="st0" d="M261.4,33.7l2.2-4.1c3.2,1.6,6,3,9,3c4.8,0,7.6-1.7,7.8-4.5c0.1-3.1-2.3-4-7.8-5.3
			c-4.8-1.2-11.4-2.8-11.4-9.8c0-2.5,0.9-4.7,2.5-6.4c2-2,5.1-3.1,8.7-3.1c4.4,0,7.2,1.3,9.2,2.3l-2,4.2c-1.6-0.9-3.7-1.8-7.1-1.8
			c-2.3,0-4.2,0.7-5.4,1.8c-0.8,0.8-1.1,1.8-1.1,3c0,3.2,2.8,4,7.9,5.3c6,1.5,11.5,3.4,11.2,10c-0.2,5.5-5,9-12.4,9
			C268.6,37.2,265,35.6,261.4,33.7z"/>
		<path class="st1" d="M272.4,10.8c-1.8,0-3,0.5-3.4,1c-0.1,0.1-0.2,0.2-0.2,0.3c2.2,0.3,3.7,1,5,1.7l1.3-2.7
			C274.3,10.9,273.4,10.8,272.4,10.8z M261.2,12.9c0,7,6.6,8.6,11.4,9.8c5.5,1.4,7.8,2.3,7.8,5.3c-0.1,2.8-3,4.5-7.8,4.5
			c-3,0-5.8-1.3-9-3l-2.2,4.1c3.6,1.9,7.1,3.5,11.2,3.5c7.3,0,12.2-3.5,12.4-9c0.2-6.6-5.2-8.5-11.2-10c-5-1.2-7.9-2.1-7.9-5.3
			c0-1.3,0.4-2.3,1.1-3c1.1-1.1,3.1-1.8,5.4-1.8c3.4,0,5.5,1,7.1,1.8l2-4.2c-1.9-1-4.7-2.3-9.2-2.3c-3.6,0-6.6,1.1-8.7,3.1
			C262.1,8.3,261.2,10.4,261.2,12.9z M257.8,33.5l-2.2,4.1c3.7,1.8,7.1,3.5,11.2,3.5c2.5,0,4.7-0.4,6.6-1.2c-0.2,0-0.5,0-0.7,0
			c-5.1,0-9.2-2.1-13.5-4.3l-1.4-0.7l0.6-1.1C258.2,33.7,258,33.6,257.8,33.5z M249.8,41.5c3.6,1.9,7.1,3.5,11.1,3.5
			c2.5,0,4.8-0.4,6.6-1.1c-0.2,0-0.5,0-0.7,0c-5.1,0-9.2-2.1-13.5-4.4l-1.4-0.7l0.6-1.1c-0.2-0.1-0.4-0.2-0.6-0.3L249.8,41.5z
			 M257.9,10.5c-1.6,1.6-2.5,3.9-2.5,6.3c0,7,6.6,8.6,11.4,9.8c3.9,0.9,6.2,1.7,7.2,3.2c1.7-0.2,3.7-0.7,3.7-1.8
			c0-0.7,0-1.2-5.7-2.6c-5-1.3-13.4-3.3-13.5-12.4c0-1.1,0.2-2.3,0.5-3.3C258.6,9.9,258.2,10.1,257.9,10.5z M261.4,27.9
			c-4.4-1.6-8.7-4.5-8.7-11c0-1.2,0.1-2.3,0.4-3.4c-0.4,0.3-0.7,0.6-1,0.9c-1.6,1.6-2.5,3.8-2.5,6.3c0,6.6,5.9,8.4,10.6,9.6
			L261.4,27.9z M255.6,31.7c-4.4-1.6-8.7-4.5-8.7-11c0-3.2,1.1-6.1,3.3-8.3c1.4-1.4,3.1-2.4,5.1-3.1c0.2-0.3,0.5-0.6,0.7-0.8
			c1.4-1.4,3.1-2.4,5.1-3.1c0.2-0.3,0.5-0.5,0.7-0.8c2.5-2.5,6.3-3.9,10.6-3.9c5.4,0,8.6,1.6,10.8,2.8l0,0c0.2,0.1,0.5,0.2,0.7,0.3
			l1.2,0.6l-4.3,9.2l-1.2-0.6c-0.3-0.1-0.7-0.3-1-0.5c-0.3-0.2-0.7-0.3-1-0.5l-1.8,3.9c5.1,1.4,12.2,3.8,11.9,12.4
			c-0.2,5.1-3.2,8.9-8.3,10.6c-1.4,1.7-3.4,3.1-5.8,3.9c-2.6,3.1-7,5-12.7,5c-5.1,0-9.2-2.1-13.5-4.4l-1.4-0.7l4.7-8.9l1.3,0.7
			c0.6,0.3,1.1,0.6,1.7,0.9L255.6,31.7z"/>
		<polygon class="st0" points="220.3,18.4 231.8,18.4 231.8,23 220.3,23 220.3,32.8 236.8,32.8 236.8,37.2 215.6,37.2 215.6,4 
			220.3,4 236.4,4 236.4,8.7 220.3,8.7 		"/>
		<path class="st1" d="M236.4,4h-16.1h-4.6v33.2h21.1v-4.4h-16.5V23h11.6v-4.6h-11.6V8.7h16.1V4z M223,12.6h7.6v-1.1H223V12.6z
			 M223,15.7h1.8v-0.4H223V15.7z M223,26.9h3v-1.2h-3V26.9z M225.2,43.8h-18.1v-32H204v33.2h21.2V43.8z M212.9,5.2V1.3H223h16.1
			v10.1h-5.8v3.9h-5.8v0.4h7.1v10.1h-5.8v3.9H223v0.5h16.5v9.8h-5.8v3.9h-5.8v3.9h-26.6V9.1h5.8V5.2H212.9z M231,39.9h-18.1v-32
			h-3.1v33.2H231V39.9z"/>
		<polygon class="st0" points="171.1,37.2 171.1,3.8 175.8,3.8 175.8,3.9 191.9,3.9 191.9,8.5 175.8,8.5 175.8,18.2 187.3,18.2 
			187.3,22.9 175.8,22.9 175.8,37.2 		"/>
		<path class="st1" d="M178.5,12.4h7.6v-1.2h-7.6V12.4z M178.5,15.5h1.8v-0.4h-1.8V15.5z M178.5,26.7h3v-1.1h-3V26.7z M171.1,37.2
			h4.7V22.9h11.5v-4.7h-11.5V8.5h16.1V3.9h-16.1v0h-4.7V37.2z M164.2,44.9v-1.1h-1.6V11.6h-3.1v33.4H164.2z M165.3,41.1h4.6v-1.2
			h-1.6V7.7h-3.1V41.1z M172.7,43.8h-5.8v3.9h-10.1V8.9h5.8V5h5.8V1.1h10.1v0h16.1v10.1h-5.8v3.9H183v0.4h7.1v10.1h-5.8v3.9h-5.7
			v10.5h-5.8V43.8z"/>
		<path class="st1" d="M130.2,10.1c-1.7,0-3.4,0.5-4.8,1.2c6.4,0.5,11.5,6,11.5,12.6c0,1.3-0.2,2.6-0.6,3.8c2.2-1.8,3.7-4.6,3.7-7.7
			C140.1,14.5,135.7,10.1,130.2,10.1z M120.3,19.9c0,4.8,3.4,8.8,7.9,9.7c0.1-0.7,0.2-1.3,0.2-2c0-4.8-3.4-8.8-8-9.7
			C120.4,18.6,120.3,19.3,120.3,19.9z M122.2,14.2c-0.3,0.4-0.5,0.8-0.8,1.2c5.6,1.3,9.8,6.3,9.8,12.3c0,0.7,0,1.4-0.2,2.1
			c0.5,0,0.9-0.1,1.4-0.2c1.1-1.6,1.8-3.6,1.8-5.7c0-5.5-4.4-9.9-9.9-9.9C123.6,14,122.9,14,122.2,14.2z M117.6,19.9
			c0-6.9,5.6-12.6,12.6-12.6c6.9,0,12.6,5.7,12.6,12.6c0,7-5.7,12.6-12.6,12.6C123.2,32.6,117.6,26.9,117.6,19.9z"/>
		<path class="st0" d="M130.2,7.3c-7,0-12.6,5.7-12.6,12.6c0,7,5.6,12.6,12.6,12.6c6.9,0,12.6-5.6,12.6-12.6
			C142.8,13,137.1,7.3,130.2,7.3z M130.2,37.2c-9.5,0-17.2-7.7-17.2-17.2c0-9.5,7.7-17.2,17.2-17.2c9.5,0,17.2,7.8,17.2,17.2
			C147.4,29.5,139.7,37.2,130.2,37.2z"/>
		<path class="st1" d="M113,19.9c0,9.5,7.7,17.2,17.2,17.2c9.5,0,17.2-7.7,17.2-17.2c0-9.5-7.8-17.2-17.2-17.2
			C120.7,2.7,113,10.5,113,19.9z M110.3,19.9c0-2.8,0.6-5.6,1.7-8c-3,3.1-4.8,7.3-4.8,11.9c0,9.5,7.7,17.2,17.2,17.2
			c2.2,0,4.3-0.4,6.2-1.2c-0.1,0-0.3,0-0.4,0C119.2,39.9,110.3,31,110.3,19.9z M98.6,27.7c0-8.2,4.9-15.2,12-18.3
			c1.7-1.6,3.7-3,5.8-3.9C120,2.1,124.9,0,130.2,0c11,0,19.9,8.9,19.9,19.9c0,8.2-5,15.2-12,18.3c-1.7,1.6-3.6,3-5.8,3.9
			c-3.6,3.4-8.5,5.5-13.8,5.5C107.5,47.7,98.6,38.7,98.6,27.7z M106.1,15.8c-3,3.1-4.8,7.3-4.8,11.9c0,9.5,7.7,17.2,17.2,17.2
			c2.2,0,4.3-0.4,6.2-1.1c-0.1,0-0.3,0-0.4,0c-11,0-19.9-8.9-19.9-19.9C104.4,21,105,18.3,106.1,15.8z"/>
		<path class="st1" d="M70.6,12.5c2.9,0.3,5.1,0.9,6.4,3c0.3,0.5,0.5,1.1,0.7,1.7c1.3-0.2,2.3-0.6,2.8-1.1c0.6-0.7,0.6-2.1,0-3
			c-0.5-0.8-1.4-1.4-4.4-1.7c-1.9-0.2-3.9-0.2-5.6-0.2L70.6,12.5L70.6,12.5z M70.6,17.3c1.5,0,2.9,0,4.4,0c-0.1-0.2-0.1-0.3-0.2-0.5
			c-0.5-0.8-1.4-1.3-4.1-1.6V17.3z M67.9,19.9V8.4l1.4,0c2,0,4.6-0.1,7.3,0.2c2.9,0.3,5.1,1,6.4,3c1.2,1.9,1.1,4.7-0.3,6.2
			c-1.4,1.6-3.9,2.1-5.8,2.2C75.6,20,74.5,20,73.3,20c-1.2,0-2.5,0-3.8,0h-0.3L67.9,19.9z"/>
		<path class="st0" d="M67.9,8.4v11.5l1.4,0h0.3c1.3,0,2.5,0,3.8,0c1.1,0,2.3,0,3.4-0.1c1.8-0.1,4.4-0.6,5.8-2.2
			c1.4-1.6,1.6-4.3,0.3-6.2c-1.2-2-3.4-2.6-6.4-3c-2.6-0.3-5.3-0.2-7.3-0.2L67.9,8.4z M63.2,37.2V3.8h3.2h0C70,3.7,73.5,3.6,77,4
			c2.3,0.2,7.1,0.8,9.8,5.1c2.3,3.7,2,8.7-0.8,11.8c-1.1,1.3-2.6,2.2-4.4,2.9l-1.5,0.5L87.3,37h-5.4l-6.9-12.4l-1.1,0
			c-1.5,0-3,0-4.4-0.1h-1.6v12.6H63.2z"/>
		<path class="st1" d="M73.4,27.4c-0.9,0-1.9,0-2.8,0v3.9l5.4,9.7h5.4l-0.7-1.1h-0.5L73.4,27.4z M67.5,39.9l2.8,4.9h5.4L75,43.6
			h-0.5l-3.9-6.9v3.1H67.5z M63.2,37.2h4.6V24.6h1.6c1.4,0,2.9,0.1,4.4,0.1l1.1,0L81.9,37h5.4l-7.2-12.8l1.5-0.5
			c1.8-0.7,3.3-1.6,4.4-2.9c2.8-3.1,3.1-8.1,0.8-11.8C84.1,4.8,79.3,4.2,77,4c-3.5-0.4-7-0.3-10.5-0.2h0h-3.2V37.2z M57.4,41.1h4.7
			v-1.2h-1.6V7.7h-3.1V41.1z M48.8,8.9h5.8V5h5.8V1.1h5.9c3.7-0.2,7.2-0.2,10.9,0.2c2.5,0.3,8.4,0.9,11.8,6.3c3,4.7,2.5,11-1,15.1
			c-1.1,1.2-2.5,2.3-4.1,3l7.9,14.1h-8l2.2,3.9h-8l2.2,3.9H68.6l-3.9-6.9v3.2h-5.8v3.9H48.8V8.9z M51.6,44.9h4.7v-1.1h-1.6V11.6
			h-3.1V44.9z"/>
		<path class="st1" d="M21.8,12.5c2.9,0.3,5.1,0.9,6.4,3c0.3,0.5,0.5,1.1,0.7,1.7c1.3-0.2,2.3-0.6,2.8-1.1c0.6-0.7,0.6-2.1,0.1-3
			c-0.5-0.8-1.4-1.4-4.4-1.7c-1.9-0.2-3.9-0.2-5.6-0.2L21.8,12.5C21.8,12.5,21.8,12.5,21.8,12.5z M25.9,16.9
			c-0.5-0.8-1.4-1.3-4.1-1.6v2.1c1.5,0,3,0,4.4,0C26,17.2,25.9,17,25.9,16.9z M24.4,20c-1.2,0-2.5,0-3.8,0l-1.6,0V8.4l1.3,0
			c2,0,4.7-0.1,7.3,0.2c2.9,0.3,5.1,1,6.4,3c1.2,1.9,1.1,4.7-0.3,6.2c-1.4,1.6-4,2.1-5.8,2.2C26.7,20,25.6,20,24.4,20z"/>
		<path class="st0" d="M20.6,20c1.3,0,2.5,0,3.8,0c1.1,0,2.3,0,3.4-0.1c1.8-0.1,4.4-0.6,5.8-2.2c1.4-1.6,1.5-4.3,0.3-6.2
			c-1.3-2-3.4-2.6-6.4-3c-2.6-0.3-5.3-0.2-7.3-0.2l-1.3,0v11.5L20.6,20z M17.6,3.8c3.5-0.1,7-0.2,10.5,0.2c2.3,0.2,7.1,0.8,9.8,5.1
			c2.3,3.7,2,8.7-0.8,11.8c-2,2.3-5.1,3.5-9,3.8c-1.1,0-2.3,0.1-3.7,0.1c-1.3,0-2.7,0-3.9-0.1H19v12.6h-4.6V3.8H17.6L17.6,3.8z"/>
		<path class="st1" d="M21.7,28.5c0.2,0,0.4,0,0.6,0c2-0.1,3.7-0.5,5.3-1.1c-0.9,0-2,0.1-3.1,0.1c-0.9,0-1.8,0-2.7,0V28.5z M28.1,4
			c-3.5-0.4-7-0.3-10.5-0.2h-0.1h-3.2v33.4H19V24.6h1.6c1.2,0,2.5,0.1,3.9,0.1c1.4,0,2.6,0,3.7-0.1c3.9-0.2,7-1.5,9-3.8
			c2.8-3.1,3.1-8.1,0.8-11.8C35.2,4.8,30.4,4.2,28.1,4z M13.2,41.1v-1.2h-1.6V7.7H8.5v33.4H13.2z M5.8,8.9V5h5.8V1.1h5.9
			c3.6-0.2,7.2-0.2,10.9,0.2c2.5,0.3,8.4,0.9,11.8,6.3c3,4.7,2.5,11-1.1,15.1c-1.4,1.6-3.4,2.9-5.6,3.7c-0.1,0.1-0.1,0.2-0.2,0.2
			c-1.4,1.6-3.4,2.9-5.6,3.7c-0.1,0.1-0.1,0.1-0.2,0.2c-1.5,1.7-3.4,3-5.8,3.7v5.7h-5.8v3.9h-5.8v3.9H0V8.9H5.8z M7.3,44.9v-1.1H5.8
			V11.6H2.7v33.4H7.3z"/>
	</g>
</g>
</svg>
