<?xml version="1.0" encoding="utf-8"?>
<!-- Generator: Adobe Illustrator 22.0.1, SVG Export Plug-In . SVG Version: 6.00 Build 0)  -->
<svg version="1.1" id="Layer_1" xmlns="http://www.w3.org/2000/svg" xmlns:xlink="http://www.w3.org/1999/xlink" x="0px" y="0px"
	 viewBox="0 0 823 43" style="enable-background:new 0 0 823 43;" xml:space="preserve">
<style type="text/css">
	.st0{fill:#FFFFFF;}
	.st1{fill:#231F20;}
</style>
<g id="XMLID_7_">
	<g>
		<polygon class="st0" points="820.6,9 811.6,9 811.6,33.9 807.6,33.9 807.6,9 798.5,9 798.5,4.9 806.4,4.9 807.6,4.9 811.6,4.9 
			820.6,4.9 		"/>
		<path class="st1" d="M797.4,40.6h4.1v-1h-1.4V14.7h-9v-3h-2.7v4.1h9V40.6z M806.6,36.2h-1.4V11.3h-9.1v-3h-2.7v4h9v24.9h4.1V36.2z
			 M817.9,11.3v3.3h-4v21.6h-5.1v3.4h-5.1V43h-8.8V18.1h-9V9.3h5.1V5.9h5V2.5h9.1h1.2h7.6h9v8.8H817.9z M811.6,9h9.1V4.9h-9.1h-4
			h-1.2h-7.9V9h9.1v24.9h4V9z M815.6,12.3v-1H814v1H815.6z"/>
		<polygon class="st0" points="778,4.7 778,33.7 773.9,33.7 773.9,21.2 760.3,21.2 760.3,33.7 756.2,33.7 756.2,4.7 760.3,4.7 
			760.3,17.1 773.9,17.1 773.9,4.7 		"/>
		<path class="st1" d="M748.8,39.4V11.4h-2.7v29h4v-1H748.8z M751.2,8v29h4.1v-1h-1.4V8H751.2z M768.9,8v6.7h2.7V8H768.9z
			 M763.8,11.4v3.3h2.7v-3.3H763.8z M773.9,17.1h-13.6V4.7h-4.1v29h4.1V21.2h13.6v12.5h4.1v-29h-4.1V17.1z M768.9,24.5V37h4v-1h-1.4
			V23.5h-8.9v1H768.9z M766.5,26.9h-3.9v1h1.2v12.5h4v-1h-1.3V26.9z M775.2,36v3.3h-5v3.4h-8.8V36h-3.9v3.3h-5.1v3.4h-8.8V9h5.1V5.7
			h5.1V2.3h8.8V9h3.9V5.7h5V2.3h8.8V36H775.2z"/>
		<path class="st0" d="M725.3,29.5c2,0,3.9-0.6,5.6-1.6l0.6-0.3v-6.2h-5v-3.8h8.8v11.8c-2.7,2.6-6.2,4-10,4c-8,0-14.5-6.5-14.5-14.6
			c0-8,6.5-14.6,14.5-14.6c3.4,0,6.7,1.2,9.3,3.3l-2.7,2.7C730,8.8,727.7,8,725.3,8c-5.9,0-10.7,4.8-10.7,10.7
			C714.6,24.6,719.4,29.5,725.3,29.5z"/>
		<path class="st1" d="M719.1,24.2L719.1,24.2C719,24.2,719,24.3,719.1,24.2L719.1,24.2z M719.7,18.5c-0.8-0.5-1.7-0.9-2.6-1.1
			c-0.1,0.5-0.1,0.9-0.1,1.4c0,1.1,0.2,2.2,0.6,3.1h1.5v-3.3H719.7z M720.5,39c-0.1,0-0.2,0-0.3,0c-9.3,0-16.9-7.6-16.9-16.9
			c0-2.4,0.5-4.7,1.4-6.8c-2.5,2.6-4.1,6.2-4.1,10.1c0,8.1,6.5,14.6,14.6,14.6C717.1,40,718.9,39.7,720.5,39z M724.1,17.9l-0.6,0.6
			h0.6V17.9z M720.3,36.7c1.9,0,3.7-0.4,5.3-1c-0.1,0-0.2,0-0.3,0c-9.3,0-16.9-7.6-16.9-16.9c0-2.4,0.5-4.7,1.4-6.7
			c-2.5,2.6-4.1,6.2-4.1,10.1C705.7,30.1,712.2,36.7,720.3,36.7z M717.8,15.1c1.4,0.4,2.7,1,3.9,1.9l2.3-2.3
			c-1.1-0.6-2.4-0.9-3.7-0.9c-0.6,0-1.2,0.1-1.8,0.2C718.2,14.3,718,14.7,717.8,15.1z M730.9,27.9c-1.7,1-3.6,1.6-5.6,1.6
			c-5.9,0-10.7-4.8-10.7-10.7c0-5.9,4.8-10.7,10.7-10.7c2.4,0,4.7,0.8,6.5,2.2l2.7-2.7c-2.6-2.2-5.8-3.3-9.3-3.3
			c-8,0-14.5,6.6-14.5,14.6c0,8.1,6.5,14.6,14.5,14.6c3.8,0,7.3-1.4,10-4V17.5h-8.8v3.8h5v6.2L730.9,27.9z M724.1,23.7v-2.9h-2.7
			v3.9h5V27c0.9-0.1,1.9-0.4,2.7-0.8v-2.5H724.1z M726.7,13.6l2.3-2.3c-1.1-0.6-2.4-0.9-3.8-0.9c-1.5,0-2.9,0.4-4.1,1.1
			C723.3,11.6,725.1,12.4,726.7,13.6z M738,7.4l-6.1,6.1l-0.9-0.8l-2.5,2.4h9.1v16h-0.8c-1.3,1.2-2.7,2.1-4.2,2.9v0.5h-0.9
			c-1.3,1.2-2.7,2.1-4.2,2.9v0.5h-0.9c-3.1,2.9-7.2,4.5-11.5,4.5c-9.3,0-16.9-7.6-16.9-16.9c0-6.9,4.2-12.9,10.2-15.5
			c1.5-1.4,3.2-2.6,5.1-3.4c3.1-2.9,7.2-4.7,11.7-4.7c4.4,0,8.5,1.7,11.7,4.7L738,7.4z"/>
		<rect x="686.1" y="4.7" class="st0" width="4" height="29"/>
		<path class="st1" d="M676,11.4v29h4.1v-1h-1.4V11.4H676z M683.7,36V8h-2.7v29h4v-1H683.7z M686.1,4.7v29h4v-29H686.1z M692.5,2.3
			V36h-5v3.3h-5.1v3.4h-8.8V9h5.1V5.7h5V2.3H692.5z"/>
		<polygon class="st0" points="661.5,26 661.5,4.2 665.5,4.2 665.5,33.1 660.9,33.1 648.4,11.4 648.4,33.1 644.4,33.1 644.4,4.2 
			648.9,4.2 		"/>
		<path class="st1" d="M637,10.9h-2.7v29h4v-1H637V10.9z M639.3,36.5h4v-1H642v-28h-2.7V36.5z M654.8,39.4l-4.1-7v3.1h-2.5l2.5,4.4
			h4.6V39L654.8,39.4z M656.4,12.5l2.7,4.7V7.5h-2.7V12.5z M659.9,36l-9.1-15.8v7.4l5.1,8.8h4.6v-0.8L659.9,36z M661.5,4.2V26
			L648.9,4.2h-4.5v29h4V11.4l12.5,21.7h4.6v-29H661.5z M667.9,1.8v33.7h-5.1v3.3h-5.1v3.4h-7.1l-0.9,0.5l-4.1-7v3.1h-5v3.4h-8.8V8.5
			h5.1V5.2h5V1.8h8.8v0.9l3.3,5.7V5.2h5.1V1.8H667.9z"/>
		<polygon class="st0" points="600.2,5.3 592,21.3 592,33.9 587.9,33.9 587.9,21.3 579.6,5.3 584.2,5.3 589.9,16.4 595.7,5.3 		"/>
		<path class="st1" d="M581.8,39.6h-1.4V25.2l-0.2-0.5L573.7,12h-4.1l8.3,16v12.6h4V39.6z M582.8,37.2h4.1v-1h-1.4V21.8l-6.8-13.2
			h-4.2l8.3,16V37.2z M591.3,8.7h-0.6l-1,1.9l0.3,0.6L591.3,8.7z M587.9,33.9h4.1V21.3l8.3-16h-4.6l-5.7,11.1l-5.7-11.1h-4.6l8.3,16
			V33.9z M594.2,2.9h9.8l-9.8,18.9v14.4h-5.1v3.4h-5.1V43h-8.8V28.6l-0.2-0.5l-9.5-18.4h6.8l-1.7-3.3h6.8l-1.7-3.4h9.8l2.7,5.1
			l0.9-1.7h3.3L594.2,2.9z"/>
		<polygon class="st0" points="543.2,4.6 543.2,29.6 557.5,29.6 557.5,33.7 539.2,33.7 539.2,4.6 		"/>
		<path class="st1" d="M539.2,33.7h18.4v-4.1h-14.3v-25h-4.1V33.7z M534.1,7.9V37h18.4v-1h-15.6l0-28.1H534.1z M529.1,40.4h18.4v-1
			h-15.6v-28h-2.7V40.4z M549.8,42.7h-23.1V8.9h5.1V5.6h5V2.2h8.8v25.1h14.3V36h-5.1v3.3h-5.1V42.7z"/>
		<rect x="514.5" y="4.7" class="st0" width="4.1" height="29"/>
		<path class="st1" d="M507.1,39.4V11.4h-2.7v29h4v-1H507.1z M513.5,37v-1h-1.4V8h-2.7v29H513.5z M514.5,33.7h4.1v-29h-4.1V33.7z
			 M512.2,5.7V2.3h8.8V36h-5.1v3.3h-5.1v3.4h-8.7V9h5.1V5.7H512.2z"/>
		<polygon class="st0" points="470.4,10.6 470.4,33.7 466.3,33.7 466.3,4.7 471,4.7 480.2,17 489.4,4.7 494,4.7 494,33.7 
			489.9,33.7 489.9,10.7 480.2,23.7 		"/>
		<path class="st1" d="M483.8,39.4h-1.3V24.6l-2.4,3.1l-0.4-0.5v13.2h4V39.4z M488.9,37v-1h-1.4V17.8l-2.7,3.6V37H488.9z
			 M472.7,17.7v6.2l2.4,3.2l2.3-3.1L472.7,17.7z M460.3,40.4v-1h-1.4V11.4h-2.7v29H460.3z M470.4,33.7v-23l9.8,13.1l9.8-13v22.9h4
			v-29h-4.6L480.2,17L471,4.7h-4.6v29H470.4z M472.7,3.1l4.7,6.3V9h3.2l1.9-2.5V5.7h3.2l1.9-2.5V2.3h8.8V36h-5.1v3.3h-5v3.4h-8.8
			V27.9l-2.3,3.1l-1.3-1.7l-1.1,1.5V36h-5v3.3h-5.1v3.4h-8.8V9h5.1V5.7h5.1V2.3h8.7V3.1z M465.3,36H464V8h-2.7v29h4V36z"/>
		<path class="st1" d="M432.2,22l-2.1-5.5L428,22H432.2z M430.6,8.6l6,15.7h-12L430.6,8.6z"/>
		<path class="st0" d="M436.6,24.4l-6-15.7l-6,15.7H436.6z M433.7,4.9l10.9,28.8h-4.5l-2-5.2H423l-2,5.2h-4.5l10.9-28.8H433.7z"/>
		<path class="st1" d="M406.4,39.4L417,11.7H414l-11,28.7h4.5l0.4-1H406.4z M423.7,8.3h-2.9L409.8,37h4.5l0.4-1h-1.6L423.7,8.3z
			 M426.6,40.4h4.5l-2.4-6.2h-5.4l-0.4,1h1.6L426.6,40.4z M435.3,2.5L448.1,36h-8l1.3,3.3h-8l1.3,3.4H425l-2-5.2h-6.4l-0.7,1.9h-5.5
			l-1.3,3.4h-9.6l12.8-33.5h5.5l1.3-3.3h5.5l1.3-3.4H435.3z M437.9,37l-2.4-6.2h-10.9l-0.4,1h7.1l2,5.2H437.9z M440.1,33.7h4.5
			L433.7,4.9h-6.2l-10.9,28.8h4.5l2-5.2h15.1L440.1,33.7z"/>
		<polygon class="st0" points="397.3,4.7 397.3,8.8 383.3,8.8 383.3,17.1 393.4,17.1 393.4,21.2 383.3,21.2 383.3,33.7 379.3,33.7 
			379.3,4.7 383.3,4.7 		"/>
		<path class="st1" d="M371.9,39.4V11.4h-2.7v29h4.1v-1H371.9z M378.3,37v-1h-1.4V8h-2.7v29H378.3z M388.3,24.5v-1h-2.6v1H388.3z
			 M387.2,14.8v-0.3h-1.5v0.3H387.2z M392.3,12.1v-1h-6.6v1H392.3z M397.3,8.8V4.7h-14h-4v29h4V21.2h10v-4.1h-10V8.8H397.3z
			 M385.7,2.3h14v8.8h-5.1v3.3h-5.1v0.3h6.2v8.8h-5.1v3.3h-5V36h-5.1v3.3h-5.1v3.4h-8.8V9h5.1V5.7h5.1V2.3L385.7,2.3L385.7,2.3z"/>
		<path class="st1" d="M319.3,26.8c-1-1.5-1.9-3.1-2.7-5c-1.7,0.6-2.1,1.2-2.2,1.4c-0.1,0.2-0.4,0.9-0.5,1.6c0.3,0.7,0.6,1.3,1,1.9
			C316.5,27.3,317.9,27.4,319.3,26.8z M322,26.6l0.7,1l-1.1,0.7c-1.4,0.8-2.8,1.2-4.3,1.2c-1.2,0-2.4-0.3-3.6-0.8
			c-2.2-1-2.7-3.4-1.4-6.5c0.6-1.4,2.2-2.4,4.7-3l1-0.2l0.4,0.9C319.4,22.5,320.7,24.7,322,26.6z"/>
		<path class="st0" d="M322.7,27.6l-0.7-1c-1.3-1.9-2.5-4.1-3.6-6.6l-0.4-0.9l-1,0.2c-2.5,0.6-4.1,1.6-4.7,3c-1.3,3-0.8,5.5,1.4,6.5
			c1.2,0.5,2.4,0.8,3.6,0.8c1.5,0,3-0.4,4.3-1.2L322.7,27.6z M334,29.4l1.9,3.6c-1.1,0.4-2.2,0.6-3.3,0.6h0c-1.1,0-2.2-0.2-3.2-0.6
			c-1.1-0.4-2.1-1-3.2-1.9l-0.7-0.5l-0.8,0.5c-0.1,0.1-0.3,0.2-0.5,0.4c-2.1,1.4-4.4,2.1-6.8,2.1c0,0,0,0,0,0
			c-1.7,0-3.5-0.4-5.3-1.1c-4.2-1.9-5.6-6.7-3.5-11.8c0.7-1.7,2-3,3.9-4l1.4-0.7l-1.1-1.1c-0.5-0.5-0.9-1.1-1.2-1.7
			c-0.9-2.2-0.5-4.9,1-6.9c1.2-1.6,3.1-2.8,5.3-3.4c2-0.6,3.9-0.5,5.5,0c0.9,0.3,1.6,0.7,2.2,1.2l-2.5,3.2c-0.4-0.2-0.7-0.5-1.1-0.6
			c-1-0.4-2.2-0.2-3,0c-1.4,0.4-2.6,1.1-3.2,2c-0.6,0.7-0.9,1.9-0.5,2.8c0.3,0.7,1.1,1.3,2.1,1.5c0.7,0.1,1.4,0.1,2.2-0.1l1.7,3.7
			l0.5,1.1c0.7,1.8,1.6,3.5,2.5,5l1.2,2.1l0.9-2.4c0.2-0.6,0.4-1.2,0.5-1.7h4.1c-0.2,2-1,4.2-2.2,6.1l-0.6,0.9l0.9,0.6
			c0.5,0.4,1.1,0.7,1.6,0.9C331.8,29.7,332.8,29.7,334,29.4z"/>
		<path class="st1" d="M304.1,11.4c-0.6,0.4-1.1,1-1.6,1.5c-1.6,2-2,4.7-1,6.9c0.2,0.5,0.5,1,0.9,1.4c0.7-1,1.6-1.8,2.7-2.6
			c-0.3-0.4-0.5-0.9-0.7-1.3C303.6,15.6,303.5,13.4,304.1,11.4z M309.5,14c-0.8-1.9-0.9-4-0.4-6c-0.6,0.5-1.1,1-1.5,1.5
			c-1.6,2.1-2,4.8-1,6.9c0.2,0.5,0.5,1,0.9,1.5c0.7-1,1.6-1.9,2.7-2.6C309.9,14.9,309.6,14.5,309.5,14z M307.2,40.3
			c1.6,0,3.2-0.3,4.8-1c-2,0-4-0.5-6-1.4c-5.1-2.2-7.1-7.7-5.2-13.5c-1.1,0.8-1.9,1.8-2.4,3c-2.2,5.1-0.8,9.9,3.4,11.8
			C303.7,39.9,305.4,40.3,307.2,40.3C307.2,40.3,307.2,40.3,307.2,40.3z M312.3,37c1.6,0,3.2-0.4,4.8-1c-2,0-4-0.5-6-1.4
			c-5.1-2.2-7.1-7.7-5.1-13.5c-1.1,0.9-1.9,1.9-2.4,3c-2.2,5.1-0.7,9.9,3.5,11.8C308.7,36.6,310.5,37,312.3,37z M318.1,10.6l1.2-1.5
			c-0.7,0.2-1.3,0.6-1.6,1c0,0.1-0.1,0.1-0.1,0.2C317.8,10.4,318,10.5,318.1,10.6z M325.7,39.8l-0.3-0.5c-0.7-0.1-1.4-0.3-2.1-0.6
			c-1.1-0.4-2.1-1-3.1-1.7c-1.1,0.7-2.2,1.2-3.4,1.6c0.7,0.5,1.5,0.9,2.3,1.2c1.1,0.4,2.2,0.6,3.2,0.6
			C323.5,40.4,324.6,40.2,325.7,39.8z M330.5,35.8c-0.7-0.1-1.4-0.3-2.1-0.6c-1-0.4-2.1-1-3.1-1.7c-1.1,0.7-2.2,1.2-3.4,1.6
			c0.8,0.5,1.6,0.9,2.3,1.2c1.1,0.4,2.1,0.6,3.2,0.6h0c1.1,0,2.2-0.2,3.3-0.6L330.5,35.8z M332.5,33.7c1.1,0,2.2-0.2,3.3-0.6
			l-1.9-3.6c-1.1,0.4-2.2,0.3-3.3-0.1c-0.5-0.2-1.1-0.5-1.6-0.9l-0.9-0.6l0.6-0.9c1.2-1.9,2-4.1,2.2-6.1h-4.1
			c-0.1,0.6-0.2,1.2-0.5,1.7l-0.9,2.4l-1.2-2.1c-0.9-1.5-1.7-3.2-2.5-5l-0.5-1.1l-1.7-3.7c-0.8,0.2-1.5,0.2-2.2,0.1
			c-1-0.2-1.8-0.8-2.1-1.5c-0.4-0.9,0-2.1,0.5-2.8c0.7-0.9,1.8-1.6,3.2-2c0.8-0.2,2-0.4,3,0c0.4,0.1,0.7,0.4,1.1,0.6l2.5-3.2
			c-0.6-0.5-1.4-0.9-2.2-1.2c-1.6-0.6-3.5-0.6-5.5,0c-2.3,0.6-4.1,1.8-5.3,3.4c-1.6,2-2,4.7-1,6.9c0.3,0.6,0.7,1.2,1.2,1.7l1.1,1.1
			l-1.4,0.7c-1.9,1-3.2,2.3-3.9,4c-2.2,5.1-0.7,9.9,3.5,11.8c1.7,0.7,3.5,1.1,5.3,1.1c0,0,0,0,0,0c2.4,0,4.7-0.7,6.8-2.1
			c0.1-0.1,0.3-0.2,0.5-0.4l0.8-0.5l0.7,0.5c1,0.9,2.1,1.5,3.2,1.9C330.3,33.4,331.4,33.7,332.5,33.7L332.5,33.7z M335,26.3l4,7.8
			l-1,0.5c-1.6,0.8-3.1,1.2-4.8,1.4l0.7,1.5l-1,0.6c-1.5,0.8-3.1,1.2-4.8,1.4l0.8,1.5l-1.1,0.5c-1.8,0.9-3.6,1.4-5.5,1.4
			c0,0,0,0,0,0c-1.4,0-2.7-0.2-4-0.7c-1.1-0.4-2.1-1-3.1-1.7c-2.5,1.6-5.1,2.4-7.9,2.4c0,0,0,0,0,0c-2.1,0-4.2-0.5-6.2-1.4
			c-5.5-2.4-7.4-8.6-4.7-14.9c0.7-1.7,2-3.2,3.7-4.4c-0.3-0.4-0.5-0.9-0.7-1.3c-1.3-2.9-0.8-6.6,1.3-9.3c1.3-1.7,3.2-3.1,5.5-3.9
			c1.3-1.5,3-2.6,5-3.4c1.5-1.7,3.7-3,6.2-3.7c2.5-0.7,4.8-0.6,6.9,0.1c1.6,0.6,2.9,1.6,3.8,2.3l0.9,0.7l-5.4,6.9l-0.9-0.7
			c-0.2-0.1-0.4-0.3-0.6-0.5l-1,1.2l1.7,3.7l0.1,0l0.4,1.1c0.1,0.2,0.2,0.5,0.3,0.7l0.8,1.9h0c0.1,0.2,0.1,0.4,0.2,0.5h8.7v1.2
			c0,2.5-0.7,5.1-2,7.5c0.1,0,0.1,0,0.2,0.1c0.8,0.3,1.5,0.2,2.4-0.2L335,26.3z"/>
		<path class="st0" d="M255.2,17.1c5.2,1.3,9.9,3,9.8,8.7c-0.1,4.8-4.3,7.9-10.8,7.9c-3.5,0-6.5-1.4-9.7-3l1.9-3.6
			c2.8,1.4,5.2,2.6,7.8,2.6c4.1,0,6.7-1.5,6.7-3.9c0.1-2.7-2-3.5-6.7-4.6c-4.2-1-9.9-2.5-9.9-8.5c0-2.1,0.7-4.1,2.2-5.5
			c1.8-1.8,4.5-2.7,7.5-2.7c3.8,0,6.3,1.1,8,2l-1.7,3.7c-1.5-0.7-3.2-1.6-6.2-1.6c-2,0-3.7,0.5-4.6,1.5c-0.7,0.7-1,1.5-1,2.6
			C248.4,15.3,250.8,16.1,255.2,17.1z"/>
		<path class="st1" d="M243.4,27.6l1.1-2.1c-3.8-1.4-7.6-3.9-7.6-9.6c0-1,0.1-2,0.4-2.9c-0.3,0.2-0.6,0.5-0.9,0.8
			c-1.4,1.4-2.2,3.3-2.2,5.5C234.2,25,239.3,26.6,243.4,27.6z M249.1,39.4c-4.4,0-7.9-1.8-11.7-3.8l-1.2-0.6l0.5-1
			c-0.2-0.1-0.4-0.2-0.5-0.2l-1.9,3.6c3.1,1.6,6.2,3,9.7,3c2.2,0,4.1-0.4,5.7-1C249.6,39.4,249.4,39.4,249.1,39.4z M249.1,37
			c2.2,0,4.1-0.4,5.7-1c-0.2,0-0.5,0-0.7,0c-4.4,0-7.9-1.9-11.7-3.8l-1.2-0.6l0.5-1c-0.1-0.1-0.3-0.2-0.5-0.3l-1.9,3.6
			C242.6,35.6,245.6,37,249.1,37z M255.2,13.3l1.1-2.4c-0.7-0.1-1.4-0.2-2.3-0.2c-1.6,0-2.6,0.5-3,0.9c-0.1,0.1-0.1,0.1-0.2,0.2
			C252.7,12.1,254.1,12.8,255.2,13.3z M255.4,27.2c1.5-0.1,3.1-0.6,3.2-1.6c0-0.6,0-1-4.9-2.2c-4.4-1.1-11.7-2.9-11.7-10.8
			c0-1,0.1-2,0.4-2.9c-0.3,0.2-0.6,0.5-0.9,0.7c-1.5,1.5-2.2,3.3-2.2,5.5c0,6.1,5.7,7.4,9.9,8.5C252.5,25.3,254.5,25.9,255.4,27.2z
			 M264.9,25.8c0.2-5.7-4.5-7.3-9.8-8.7c-4.3-1.1-6.8-1.8-6.8-4.6c0-1.1,0.4-2,1-2.6c1-1,2.7-1.5,4.6-1.5c3,0,4.8,0.8,6.2,1.6
			l1.7-3.7c-1.7-0.8-4.1-2-8-2c-3.1,0-5.7,1-7.5,2.7c-1.4,1.4-2.2,3.3-2.2,5.5c0,6.1,5.7,7.5,9.9,8.5c4.7,1.1,6.8,1.9,6.7,4.6
			c-0.1,2.5-2.6,3.9-6.7,3.9c-2.6,0-5-1.1-7.8-2.6l-1.9,3.6c3.1,1.6,6.2,3,9.7,3C260.6,33.7,264.8,30.6,264.9,25.8z M267.3,25.9
			c-0.1,4.4-2.8,7.7-7.2,9.2c-1.2,1.5-3,2.6-5.1,3.3c-2.2,2.7-6.1,4.3-11,4.3c-4.4,0-7.9-1.9-11.7-3.8l-1.2-0.6l4-7.8l1.2,0.6
			c0.5,0.2,1,0.5,1.4,0.7l1.6-3c-3.7-1.4-7.6-3.9-7.6-9.6c0-2.8,1-5.3,2.9-7.2c1.2-1.2,2.7-2.1,4.4-2.7c0.2-0.2,0.4-0.5,0.6-0.7
			c1.2-1.2,2.7-2.1,4.4-2.7c0.2-0.2,0.4-0.5,0.6-0.7C247,3.2,250.3,2,254,2c4.7,0,7.5,1.4,9.4,2.4l0,0c0.2,0.1,0.4,0.2,0.6,0.3
			l1.1,0.5l-3.7,7.9l-1.1-0.5c-0.3-0.1-0.6-0.3-0.9-0.5c-0.3-0.1-0.6-0.3-0.9-0.4l-1.6,3.4C261.4,16.3,267.5,18.4,267.3,25.9z"/>
		<path class="st1" d="M206.5,27.2c0.1-1.6-0.1-3.2-0.5-4.7v4.7H206.5z M210.7,27.2c1.1-2.4,1.2-5.6,0.3-8.2
			c-0.5-1.4-1.5-3.2-3.4-4.2c-0.7-0.3-1.3-0.5-1.6-0.5v3.6c1.1,1.2,1.8,2.6,2.2,3.7c0.6,1.7,0.8,3.7,0.7,5.6H210.7z M215.6,24.3
			c1.2-2.4,1.4-5.8,0.5-8.6c-0.5-1.4-1.5-3.2-3.4-4.2c-0.9-0.4-1.5-0.6-1.8-0.6H206v1c1,0,2,0.5,2.6,0.7c2.7,1.3,4,3.7,4.6,5.6
			c0.9,2.6,1,5.6,0.2,8.2C214.4,26,215.1,25.3,215.6,24.3z M218.3,15c1.1,3.3,0.9,7.4-0.6,10.4c-1.3,2.5-4,4.2-6.8,4.2h-7.3v-21h7.2
			c1,0,2.2,0.5,2.8,0.8C216.4,10.7,217.7,13.1,218.3,15z"/>
		<path class="st0" d="M217.7,25.4c1.5-3,1.7-7.1,0.6-10.4c-0.6-1.8-1.9-4.2-4.6-5.5c-0.6-0.3-1.8-0.8-2.8-0.8h-7.2v21h7.3
			C213.7,29.6,216.4,27.9,217.7,25.4z M222.1,13.6c1.5,4.4,1.2,9.6-0.8,13.6c-2,3.9-6.1,6.4-10.4,6.4h-11.3V4.6h11.3
			c1.4,0,2.9,0.4,4.6,1.2C218.5,7.2,220.9,10,222.1,13.6z"/>
		<path class="st1" d="M205.8,37c1.6,0,3.2-0.4,4.7-1h-13.3V8h-2.7v29H205.8z M221.3,27.2c2-4,2.4-9.2,0.8-13.6
			c-1.2-3.6-3.6-6.4-6.7-7.9c-1.6-0.8-3.2-1.2-4.6-1.2h-11.3v29.1h11.3C215.2,33.7,219.3,31.1,221.3,27.2z M192.2,39.4v-28h-2.7
			v29.1h11.3c1.6,0,3.2-0.4,4.7-1H192.2z M192.2,9V5.6h5.1V2.2h13.6c1.7,0,3.6,0.5,5.6,1.4c3.7,1.7,6.5,5.1,7.9,9.3
			c1.7,5,1.4,10.9-1,15.4c-1.6,3.1-4.3,5.5-7.4,6.7c-1.4,1.5-3.1,2.6-5.1,3.4c-2.6,2.7-6.3,4.3-10.1,4.3h-13.6V9H192.2z"/>
		<polygon class="st0" points="157.8,4.2 162.3,4.2 174.9,26 174.9,4.2 179,4.2 179,33.1 174.4,33.1 161.9,11.4 161.9,33.1 
			157.8,33.1 		"/>
		<path class="st1" d="M150.4,38.8V10.9h-2.7v29h4.1v-1H150.4z M169.9,7.5v5l2.7,4.7V7.5H169.9z M164.2,20.2v7.4l5.1,8.8h4.6v-0.8
			l-0.6,0.4L164.2,20.2z M161.8,35.5l2.5,4.4h4.6V39l-0.6,0.3l-4.1-7v3.1H161.8z M157.8,4.2v29h4V11.4l12.5,21.7h4.6v-29h-4V26
			L162.3,4.2H157.8z M156.8,36.5v-1h-1.4v-28h-2.7v29H156.8z M145.4,42.2V8.5h5.1V5.2h5.1V1.8h8.7v0.9l3.3,5.7V5.2h5V1.8h8.8v33.7
			h-5v3.3h-5.1v3.4h-7.1l-0.9,0.5l-4.1-7v3.1h-5.1v3.4H145.4z"/>
		<polygon class="st0" points="122.9,8.9 122.9,17.3 133,17.3 133,21.3 122.9,21.3 122.9,29.9 137.2,29.9 137.2,33.7 118.9,33.7 
			118.9,4.8 122.9,4.8 122.9,4.9 136.9,4.9 136.9,8.9 		"/>
		<path class="st1" d="M127.1,40.4v-1h-15.6V11.6h-2.7v28.8H127.1z M125.3,14.6V15h1.5v-0.3H125.3z M125.3,23.7v1h2.6v-1H125.3z
			 M132.2,37v-1h-15.7V8.2h-2.7V37H132.2z M116.5,2.5h8.8v0h14v8.7h-5.1v3.4h-5.1V15h6.2v8.8h-5.1v3.3h-5v0.5h14.3V36h-5.1v3.3h-5
			v3.4h-23.1V9.2h5.1V5.9h5V2.5z M125.3,11.2v1h6.6v-1H125.3z M122.9,17.3V8.9h14v-4h-14v0h-4v28.8h18.4v-3.8h-14.3v-8.6h10v-4
			H122.9z"/>
		<rect x="94.3" y="4.7" class="st0" width="4" height="29"/>
		<path class="st1" d="M88.2,40.4v-1h-1.4V11.4h-2.7v29H88.2z M98.3,4.7h-4v29h4V4.7z M90.6,39.4v3.4h-8.8v-6.9v-22V9h5.1V5.7h5V2.3
			h8.8V36h-5v3.3H90.6z M93.2,36h-1.4V8h-2.7v29h4V36z"/>
		<path class="st1" d="M61.3,16.4c-0.1-0.1-0.1-0.3-0.2-0.4c-0.4-0.7-1.2-1.1-3.6-1.4v1.8C58.8,16.4,60,16.4,61.3,16.4z M66.1,15.2
			c0.5-0.6,0.5-1.8,0-2.6c-0.4-0.7-1.2-1.2-3.8-1.5C60.7,11,58.9,11,57.5,11v1.2h0C60,12.5,62,13,63,14.7c0.3,0.5,0.5,1,0.6,1.5
			C64.8,16,65.6,15.7,66.1,15.2z M68.1,11.4c1.1,1.7,0.9,4.1-0.3,5.4c-1.2,1.4-3.4,1.8-5,1.9c-1,0.1-2,0.1-3,0.1
			c-1.1,0-2.2,0-3.3-0.1h-0.3h-1.2v-10l1.2,0c1.7-0.1,4-0.1,6.3,0.2C65.1,9.1,67,9.6,68.1,11.4z"/>
		<path class="st0" d="M67.8,16.8c1.2-1.4,1.4-3.7,0.3-5.4c-1.1-1.7-3-2.2-5.5-2.5c-2.3-0.2-4.6-0.2-6.3-0.2l-1.2,0v10h1.2h0.3
			c1.1,0,2.2,0.1,3.3,0.1c1,0,2,0,3-0.1C64.4,18.6,66.6,18.2,67.8,16.8z M71.5,9.2c2,3.2,1.7,7.5-0.7,10.2c-1,1.1-2.2,1.9-3.8,2.5
			l-1.3,0.5L72,33.5h-4.7l-6-10.7h-1c-1.3,0-2.6,0-3.8,0l-1.4,0v10.9h-4v-29h2.8h0C56.9,4.5,60,4.4,63,4.8C65,5,69.2,5.5,71.5,9.2z"
			/>
		<path class="st1" d="M45,39.4h-1.4V11.4h-2.7v29H45V39.4z M50.1,37v-1h-1.4V8H46v29H50.1z M61.8,40.3l-0.6-1h-0.4l-3.3-6V36h-2.7
			l2.4,4.2H61.8z M66.9,36.9l-0.6-1h-0.4l-6-10.7c-0.8,0-1.6,0-2.4,0v3.3l4.7,8.4H66.9z M70.8,19.4c2.4-2.7,2.7-7,0.7-10.2
			C69.2,5.5,65,5,63,4.8c-3-0.4-6.1-0.2-9.1-0.1h0h-2.8v29h4V22.7l1.4,0c1.2,0,2.5,0,3.8,0h1l6,10.7H72l-6.2-11.1l1.3-0.5
			C68.6,21.4,69.9,20.5,70.8,19.4z M75.2,13.9c0,2.6-0.9,5.2-2.6,7.1c-1,1.1-2.1,2-3.5,2.6L76,35.9H69l1.9,3.3H64l1.9,3.4H55.8
			l-3.3-6v2.7h-5.1v3.4h-8.8V9h5.1V5.7h5.1V2.3h5.1C57,2.2,60,2.1,63.3,2.4c2.2,0.2,7.3,0.8,10.2,5.5C74.7,9.7,75.2,11.9,75.2,13.9z
			"/>
		<polygon class="st0" points="30.5,4.7 30.5,8.8 16.5,8.8 16.5,17.1 26.5,17.1 26.5,21.2 16.5,21.2 16.5,33.7 12.4,33.7 12.4,4.7 
			16.5,4.7 		"/>
		<path class="st1" d="M5.1,39.4V11.4H2.4v29h4v-1H5.1z M10.1,36V8H7.4v29h4v-1H10.1z M20.4,14.8v-0.3h-1.5v0.3H20.4z M21.5,24.5v-1
			h-2.6v1H21.5z M25.4,12.1v-1h-6.6v1H25.4z M30.5,8.8V4.7h-14h-4.1v29h4.1V21.2h10v-4.1h-10V8.8H30.5z M32.9,2.3v8.8h-5.1v3.3h-5.1
			v0.3h6.2v8.8h-5.1v3.3h-5V36h-5.1v3.3H8.7v3.4H0V9h5.1V5.7h5V2.3h8.8v0H32.9z"/>
	</g>
</g>
</svg>
